<svg xmlns="http://www.w3.org/2000/svg" width="121" height="30" viewBox="0 0 121 30" fill="none">
  <path d="M14.9952 0.120911C6.71348 0.120911 0 6.83439 0 15.1161C0 23.3979 6.71348 30.1113 14.9952 30.1113C23.277 30.1113 29.9905 23.3979 29.9905 15.1161C29.9905 6.83439 23.277 0.120911 14.9952 0.120911ZM14.9952 22.9502C10.6887 22.9502 7.1611 19.4226 7.1611 15.1161C7.1611 10.8096 10.6887 7.28206 14.9952 7.28206C19.3018 7.28206 22.8294 10.8096 22.8294 15.1161C22.8294 19.4226 19.3018 22.9502 14.9952 22.9502Z" fill="#00BCD4"/>
  <path d="M43.2678 23.0584C39.8672 23.0584 37.1021 20.2932 37.1021 16.8927V9.07306H40.5206V16.8927C40.5206 18.4043 41.7561 19.6398 43.2678 19.6398C44.7794 19.6398 46.0149 18.4043 46.0149 16.8927V9.07306H49.4334V16.8927C49.4334 20.2932 46.6683 23.0584 43.2678 23.0584Z" fill="white"/>
  <path d="M57.8877 22.8294H54.4692V9.07306H57.8877C61.2883 9.07306 63.8252 11.61 63.8252 15.0105V16.8919C63.8252 20.2924 61.2883 22.8294 57.8877 22.8294ZM60.4066 15.0105C60.4066 13.4989 59.1711 12.2634 57.6595 12.2634H57.8877V19.6398H57.6595C59.1711 19.6398 60.4066 18.4043 60.4066 16.8927V15.0105Z" fill="white"/>
  <path d="M69.7621 22.8294H66.3435V9.07306H73.1806V12.4916H69.7621V14.3739H73.1806V17.7924H69.7621V22.8294Z" fill="white"/>
  <path d="M75.0629 9.07306H78.4815V19.6398H82.1282V22.8294H75.0629V9.07306Z" fill="white"/>
  <path d="M93.3966 22.8294H89.978V13.3766L87.2128 22.8294H84.9887L82.2236 13.3766V22.8294H78.805V9.07306H83.842L86.1489 16.4364L88.4558 9.07306H93.3966V22.8294Z" fill="white"/>
  <path d="M95.2805 22.8294V9.07306H98.699V22.8294H95.2805Z" fill="white"/>
  <path d="M108.3206 23.0584C104.92 23.0584 102.155 20.2932 102.155 16.8927V15.0113C102.155 11.6108 104.92 8.84564 108.3206 8.84564C111.721 8.84564 114.486 11.6108 114.486 15.0113V16.8927C114.486 20.2932 111.721 23.0584 108.3206 23.0584ZM111.068 15.0113C111.068 13.4997 109.832 12.2642 108.321 12.2642C106.809 12.2642 105.574 13.4997 105.574 15.0113V16.8927C105.574 18.4043 106.809 19.6398 108.321 19.6398C109.832 19.6398 111.068 18.4043 111.068 16.8927V15.0113Z" fill="white"/>
  <path d="M121 22.8294H117.581V12.4916H115.017V9.07306H123.564V12.4916H121V22.8294Z" fill="white"/>
</svg> 